<!-- Generator: Adobe Illustrator 21.0.0, SVG Export Plug-In  -->
<svg version="1.1"
	 xmlns="http://www.w3.org/2000/svg" xmlns:xlink="http://www.w3.org/1999/xlink" xmlns:a="http://ns.adobe.com/AdobeSVGViewerExtensions/3.0/"
	 x="0px" y="0px" width="128.018px" height="107.99px" viewBox="0 0 128.018 107.99"
	 style="overflow:scroll;enable-background:new 0 0 128.018 107.99;" xml:space="preserve">
<defs>
</defs>
<g>
	<path d="M94.201,0c0.732,3.682,2.354,6.908,2.559,10.752c0.225,4.263-0.92,8.05-2.002,12.114
		c-1.906,7.157-6.925,11.906-9.443,18.422c0.563-0.336,1.554-0.629,2.151-1.183c-0.423,1.523-1.542,2.83-2.471,4.047
		c0.551-0.067,1.288,0.185,1.839,0.12c-4.21,9.339-11.082,17.661-21.539,19.957c3.534,0.266,6.227-0.472,9.427-1.289
		c0.11-0.126,0.104-0.134-0.018-0.019C68.438,68.995,62.386,76,52.765,75.459c-2.66-0.15-3.218-0.352-5.181,1.188
		c-1.322,1.038-2.672,2.998-3.756,4.145c-3.512,3.708-6.113,5.916-11.426,5.77c4.742-2.495,16.524-16.69,20.059-19.646
		C66.154,56.65,83.591,31.111,86.58,24.891c-3,2.738-5.161,6.883-7.48,10.17c-4.263,6.044-8.596,12.053-13.339,17.731
		c-4.204,5.031-8.905,10.648-14.714,13.892c-8.621,4.81-3.966-12.849-2.188-16.488c2.728-5.58,8.089-10.347,12.535-14.791
		c0.192,2.676-0.943,5.093-0.677,7.758c0.653-2.522,1.633-5.245,1.978-7.817c2.912-1.281,4.567-4.097,6.878-6.192
		c2.474-2.24,5.004-4.145,7.116-6.821c-0.113,0.787,0.129,1.658,0.04,2.413c2.161-1.574,4.028-4.5,6.237-6.422
		C87.519,14.357,95.622,7.146,94.201,0z"/>
	<path d="M47.647,45.958H0c0,0,6.592,50.044,36.26,62.031h75.517c0,0,17.38-9.29,16.182-21.276H53.341
		c0,0-0.899,12.286-11.088,16.183H36.26c0,0-27.269-23.374-29.068-52.143H44.95L47.647,45.958z"/>
	<polygon points="69.822,73.828 73.119,80.121 80.012,80.121 73.719,70.232 	"/>
</g>
</svg>